# xmcd CD database file
#
# Track frame offsets:
#	150
#	22220
#	50660
#	92337
#	126487
#	158062
#	202752
#	234517
#	273415
#	304727
#
# Disc length: 4444 seconds
#
# Revision: 0
# Processed by: cddbd v1.5PL3 Copyright (c) Steve Scherf et al.
# Submitted via: CDex 1.51
#
DISCID=82115a0a
DTITLE=Peter Gabriel - Secret World Japan Tour ( March 8th, 1994 ) Disc 1
DYEAR=1994
DGENRE=Rock
TTITLE0=Opening
TTITLE1=Come Talk To Me
TTITLE2=Steam
TTITLE3=Games Without Frontiers
TTITLE4=Across The River
TTITLE5=Shaking The Tree
TTITLE6=Blood Of Eden
TTITLE7=San Jacinto
TTITLE8=Lovetown
TTITLE9=Shock The Moneky
EXTD=YEAR: 1994
EXTT0=
EXTT1=
EXTT2=
EXTT3=
EXTT4=
EXTT5=
EXTT6=
EXTT7=
EXTT8=
EXTT9=
PLAYORDER=
